<?xml version="1.0" encoding="utf-8"?>
<!-- Generator: Adobe Illustrator 17.0.0, SVG Export Plug-In . SVG Version: 6.00 Build 0)  -->
<!DOCTYPE svg PUBLIC "-//W3C//DTD SVG 1.1//EN" "http://www.w3.org/Graphics/SVG/1.1/DTD/svg11.dtd">
<svg version="1.1" id="Layer_1" xmlns="http://www.w3.org/2000/svg" xmlns:xlink="http://www.w3.org/1999/xlink" x="0px" y="0px"
	 width="150px" height="45px" viewBox="0 0 150 45" enable-background="new 0 0 150 45" xml:space="preserve">
<path fill="#D8E5E1" d="M145.75,38.657c-3.79-3.796-12.742-6.468-23.193-6.487c-6.853-14.328-21.483-24.226-38.426-24.226
	c-13.951,0-26.335,6.711-34.099,17.081c-4.357-1.265-9.263-1.978-14.453-1.978c-15.96,0-29.243,6.725-32.078,15.61H145.75z"/>
<path fill="#FFFFFF" d="M145.75,37.181c-3.79-3.796-12.742-6.468-23.193-6.487c-6.853-14.328-21.483-24.226-38.426-24.226
	c-13.951,0-26.335,6.711-34.099,17.081c-4.357-1.265-9.263-1.978-14.453-1.978c-15.96,0-29.243,6.725-32.078,15.61H145.75z"/>
</svg>
