<?xml version="1.0" encoding="utf-8"?>
<!-- Generator: Adobe Illustrator 17.0.0, SVG Export Plug-In . SVG Version: 6.00 Build 0)  -->
<!DOCTYPE svg PUBLIC "-//W3C//DTD SVG 1.1//EN" "http://www.w3.org/Graphics/SVG/1.1/DTD/svg11.dtd">
<svg version="1.1" id="Layer_1" xmlns="http://www.w3.org/2000/svg" xmlns:xlink="http://www.w3.org/1999/xlink" x="0px" y="0px"
	 width="300px" height="200px" viewBox="0 0 300 200" enable-background="new 0 0 300 200" xml:space="preserve">
<g>
	<g>
		<path fill="#F0D0B4" d="M20.575,60.039l2.254-3.714l-5.84-3.251l-1.636,5.229C16.615,58.842,18.532,59.573,20.575,60.039z"/>
		<path opacity="0.55" fill="#CB9B79" d="M16.204,55.583c0,0,3.135,2.459,5.539,2.531l1.085-1.789l-5.84-3.251L16.204,55.583z"/>
		<path fill="#F0D0B4" d="M15.829,52.563c-7.95-8.808-7.936-19.618-7.218-25.472c-0.355-1.35,1.12-6.708,2.116-8.241
			c5.355-8.248,11.821-4.894,22.859-3.674c11.037,1.22,15.54,10.104,15.926,12.492c0.054,0.327-0.106,4.182-0.278,4.638
			c-0.798,4.035-4.366,17.373-17.533,23.535C31.7,55.841,22.467,59.917,15.829,52.563z"/>
		<g>
			<path fill="#CBAB8A" d="M44.32,33.259l0.446-0.661c-0.134-0.091-13.705-9.115-31.07-9.231l-0.005,0.797
				C30.81,24.278,44.188,33.17,44.32,33.259L44.32,33.259z"/>
		</g>
		<g>
			
				<ellipse transform="matrix(-0.9788 -0.2047 0.2047 -0.9788 70.6419 81.322)" fill="#F4F5F5" cx="39.526" cy="37.008" rx="2.468" ry="2.878"/>
			<g>
				<path fill="#CBAB8A" d="M38.856,40.216c-1.547-0.323-2.506-2.025-2.135-3.794c0.37-1.769,1.928-2.946,3.476-2.622
					c1.547,0.323,2.505,2.026,2.135,3.795C41.963,39.363,40.403,40.539,38.856,40.216L38.856,40.216z M40.034,34.58
					c-1.117-0.233-2.254,0.666-2.534,2.004c-0.279,1.339,0.402,2.618,1.519,2.85c1.117,0.234,2.252-0.665,2.532-2.004
					C41.832,36.092,41.15,34.814,40.034,34.58L40.034,34.58z"/>
			</g>
			
				<ellipse transform="matrix(-0.9789 -0.2046 0.2046 -0.9789 70.2377 81.2969)" fill="#47342E" cx="39.321" cy="37.018" rx="0.996" ry="0.849"/>
		</g>
		<g>
			
				<ellipse transform="matrix(-0.9789 -0.2046 0.2046 -0.9789 29.8997 65.4437)" fill="#F4F5F5" cx="18.333" cy="31.176" rx="2.468" ry="2.878"/>
			<g>
				<path fill="#CBAB8A" d="M17.662,34.384c-1.548-0.323-2.505-2.025-2.135-3.794c0.37-1.768,1.929-2.945,3.476-2.621
					c1.547,0.324,2.504,2.025,2.135,3.795C20.768,33.532,19.209,34.708,17.662,34.384L17.662,34.384z M18.841,28.749
					c-1.117-0.233-2.254,0.666-2.534,2.005c-0.28,1.338,0.402,2.617,1.519,2.85c1.117,0.233,2.252-0.665,2.533-2.004
					C20.638,30.261,19.957,28.982,18.841,28.749L18.841,28.749z"/>
			</g>
			
				<ellipse transform="matrix(-0.9789 -0.2044 0.2044 -0.9789 29.4961 65.4206)" fill="#47342E" cx="18.128" cy="31.187" rx="0.996" ry="0.848"/>
		</g>
		<g>
			<polygon fill="#DCB89C" points="29.076,31.233 26.909,41.984 23.485,41.619 			"/>
			<polygon fill="#CBAB8A" points="29.505,43.202 27.171,41.278 23.445,41.728 			"/>
		</g>
		<path fill="#1B1918" d="M25.785,22.492c-4.473-1.182-8.641-2.652-11.4-4.426l-0.407,0.615c0,0-2.268,5.693-2.706,11.328
			c-0.764-0.258-1.858-0.63-2.889-0.981c-0.072-2.442-0.028-5.892,0.58-8.606c0.006-0.035,0.011-0.069,0.018-0.103
			C11.526,8.141,22.963,0.228,34.526,2.644c10.772,2.251,17.85,12.673,16.71,23.934c0.009,0.19,0.022,0.38,0.02,0.573
			c-0.019,2.898-1.681,7.034-2.984,9.836L45.2,36.698c1.368-4.136,1.777-8.64,1.888-10.363c-0.395-0.044-1.059-0.122-1.948-0.235
			c-0.026,0.001-13.351,0.003-18.907-1.157c0,0,1.934-0.463,3.004-1.179l-4.667-0.017L25.785,22.492z"/>
		<path fill="#E5BD9B" d="M9.935,23.693c0,0-1.965-2.288-2.731-0.57c-0.212,0.476-0.312,1.3-0.303,2.279
			c0.022,2.554,0.775,6.153,2.157,7.322"/>
		<path fill="#F0D0B4" d="M49.193,31.897c0,0,2.717-1.31,2.732,0.571c0.014,1.88-3.145,7.34-5.544,8.055"/>
		<g>
			<path fill="#CBAB8A" d="M27.299,51.144c0.343,0.071,0.542,0.099,0.556,0.101l0.1-0.792c-0.104-0.014-10.645-1.482-13.199-12.463
				l-0.776,0.18C16.313,48.205,25.006,50.665,27.299,51.144L27.299,51.144z"/>
		</g>
		<path fill="none" stroke="#CBAB8A" stroke-width="2" d="M15.443,38.025c0,0-1.528-0.9-2.174,0.239"/>
		<path fill="none" stroke="#CBAB8A" stroke-width="2" d="M24.908,53.074c0,0-2.685-0.765-4.16-1.888"/>
		<path fill="none" stroke="#CBAB8A" stroke-width="2" d="M8.269,32.014l-0.95-1.736c-1.624-8.464,1.186-7.687,1.186-7.687"/>
	</g>
</g>
</svg>
