<?xml version="1.0" encoding="utf-8"?>
<!-- Generator: Adobe Illustrator 17.0.0, SVG Export Plug-In . SVG Version: 6.00 Build 0)  -->
<!DOCTYPE svg PUBLIC "-//W3C//DTD SVG 1.1//EN" "http://www.w3.org/Graphics/SVG/1.1/DTD/svg11.dtd">
<svg version="1.1" id="Layer_1" xmlns="http://www.w3.org/2000/svg" xmlns:xlink="http://www.w3.org/1999/xlink" x="0px" y="0px"
	 width="350px" height="84px" viewBox="0 0 350 84" enable-background="new 0 0 350 84" xml:space="preserve">
<g>
	<g id="wEKLeO_1_">
	</g>
	<path fill="#35495E" d="M29.311,51.002C19.29,63.231,13.43,60.429,11.137,58.39c-2.293-2.123-3.397-7.474,6.964-16.476
		c12.739-11.041,23.95-14.692,28.196-14.692c5.265,0,8.323,3.397,8.493,7.219c0.34,10.106-19.533,30.999-36.519,41.954
		c-6.709,4.331-12.654,3.397-12.824-1.444c-0.17-4.926,5.096-7.983,6.709-8.153c1.529-0.255,1.953,0.934,1.698,1.019
		c-0.34,0.085-1.104-0.085-3.057,1.868c-4.841,4.841-2.548,6.879-0.424,6.879c4.841,0,18.174-12.229,21.742-15.712
		c19.787-19.532,22.76-27.26,19.023-29.893c-6.624-4.756-22.931,6.54-32.782,15.202c-6.709,5.86-8.068,11.89-3.907,11.975
		c3.652,0.085,13.079-7.134,13.673-7.559C28.632,50.153,30.33,49.813,29.311,51.002z"/>
	<path fill="#35495E" d="M56.73,45.385c1.529-1.359,1.444,2.718,1.444,2.718c-0.934,1.019-5.52,4.926-5.435,4.246
		c0.085-0.51-0.765-1.868-0.594-2.123C52.484,49.886,56.05,46.064,56.73,45.385z"/>
	<path fill="#35495E" d="M78.992,63.656c0.934-1.189,1.359-2.378,0.425-1.783c-0.934,0.594-11.72,10.191-12.909,11.211
		c-1.868,1.529-4.246-1.614-2.888-3.737c0.849-1.274,5.775-7.219,7.134-8.663s1.698-2.208,0.509-1.614
		c-1.104,0.594-13.249,10.531-16.221,13.673c-1.699,1.868-3.992-0.594-2.803-2.548c1.614-2.633,11.975-16.731,13.164-18.005
		c1.189-1.274,4.501-0.255,2.803,1.953c-1.019,1.444-4.841,6.794-6.455,8.578c-1.189,1.359-1.019,1.783-0.424,1.274
		c0.594-0.425,10.361-8.748,16.646-12.4c1.274-0.764,3.142,1.698,2.378,3.142c-0.765,1.444-4.841,5.605-6.709,7.728
		c-1.868,2.123-1.698,2.633-1.019,2.038c0.594-0.594,13.673-10.871,17.071-12.739c1.529-0.849,3.057,2.123,2.038,3.057
		s-3.737,3.567-8.578,8.918c-4.926,5.435-5.18,7.474-1.359,7.474c2.633,0,8.068-4.161,10.276-6.03
		c0.679-0.594,1.614,0.934,0.764,1.868c-3.312,3.227-9.427,9.257-14.438,6.285C74.491,71.045,77.973,64.76,78.992,63.656z"/>
	<path fill="#35495E" d="M131.391,54.824c13.673-14.438,27.941-26.158,28.79-26.837c0.85-0.509,1.189,2.038,0.68,2.378
		c-0.509,0.425-11.465,10.361-21.572,20.553c-1.104,1.104-2.123,2.208-3.227,3.397c5.181-0.34,16.731-0.34,22.421-0.255
		c17.325-18.514,24.035-22.251,24.46-22.421c0.424-0.255,2.123,0.509,1.358,1.104c-5.52,4.331-12.314,11.381-22.166,21.742
		c0.34,0.679,0.51,1.953,0.085,2.038c-0.085,0-0.764-0.085-1.868-0.17c-9.767,10.616-18.09,21.912-18.599,22.761
		c-0.509,0.934-2.208,0.085-2.378-0.765c-0.255-0.849,0.17-1.953,1.104-2.802c0.849-0.85,1.529-3.482,15.457-18.684l0.595-0.679
		c-3.567-0.17-8.578-0.255-14.098,0c-3.227,0.17-6.115,0.34-8.748,0.594c-7.898,8.493-14.862,16.731-15.966,18.599
		c-1.359,2.293-3.057-0.594-2.293-1.613c3.907-5.52,8.748-11.211,13.673-16.561c-8.663,1.019-11.975,2.293-12.484,2.463
		c-0.594,0.34-0.849,0.085-1.104-0.849c-0.255-1.104,0.765-1.359,1.359-1.529C117.378,57.117,125.446,55.673,131.391,54.824z"/>
	<path fill="#35495E" d="M172.326,68.327c0-0.594-0.425-1.104-1.868,0.255c-8.663,8.068-11.296,0-6.964-5.86
		c6.2-8.578,11.126-12.229,11.635-12.569c1.189-0.934,2.717,1.783,1.444,2.972c-1.019,0.934-7.474,5.945-11.38,12.229
		c-3.057,5.011,0.849,4.416,3.567,2.038c6.115-5.52,17.665-16.561,18.345-17.155c0.849-0.679,2.717,1.189,1.953,2.123
		c-0.68,0.765-10.531,9.852-13.928,14.183c-1.104,1.528-0.68,4.246,3.227,2.802c1.444-0.509,5.011-2.718,6.709-4.161
		c0.594-0.594,1.614,0.934,0.679,1.868c-2.718,2.718-6.54,5.945-10.871,5.605C172.835,72.404,172.326,70.79,172.326,68.327z"/>
	<path fill="#35495E" d="M208.335,63.656c0.934-1.189,1.359-2.378,0.425-1.783c-0.934,0.594-11.72,10.191-12.909,11.211
		c-1.868,1.529-4.246-1.614-2.887-3.737c0.85-1.274,5.775-7.219,7.134-8.663c1.359-1.444,1.698-2.208,0.509-1.614
		c-1.104,0.594-13.249,10.531-16.221,13.673c-1.698,1.868-3.992-0.594-2.803-2.548c1.614-2.633,11.975-16.731,13.164-18.005
		c1.189-1.274,4.501-0.255,2.802,1.953c-1.019,1.444-4.841,6.794-6.454,8.578c-1.189,1.359-1.019,1.783-0.425,1.274
		c0.595-0.425,10.361-8.748,16.646-12.4c1.274-0.764,3.142,1.698,2.378,3.142c-0.764,1.444-4.841,5.605-6.709,7.728
		c-1.868,2.123-1.699,2.633-1.02,2.038c0.595-0.594,13.673-10.871,17.07-12.739c1.529-0.849,3.057,2.123,2.038,3.057
		c-1.019,0.934-3.737,3.567-8.578,8.918c-4.926,5.435-5.181,7.474-1.359,7.474c2.633,0,8.068-4.161,10.276-6.03
		c0.679-0.594,1.614,0.934,0.765,1.868c-3.312,3.227-9.427,9.257-14.438,6.285C203.834,71.045,207.316,64.76,208.335,63.656z"/>
	<path fill="#35495E" d="M239.247,60.429c-4.246,5.775-12.314,14.438-16.986,12.145c-4.162-2.123-1.189-9.937,8.153-21.742
		c9.088-11.72,21.657-22.931,28.876-28.621s7.983-1.698,6.37,0.934c-1.699,2.718-10.192,11.805-18.09,18.344
		c-3.057,2.548-6.794,5.86-10.276,9.003C243.494,48.369,243.749,54.399,239.247,60.429z M223.451,70.026
		c4.246,1.698,14.098-10.871,15.457-14.692c1.104-2.973,0.255-3.142-1.783-2.718c-0.255,0.085-1.02-0.425-1.104-0.934
		c-2.803,2.548-5.265,4.841-6.964,6.37C224.47,64.166,221.582,69.261,223.451,70.026z M259.8,27.137
		c5.011-5.52,0.425-2.633-11.211,8.408c-2.293,2.208-6.709,6.964-11.295,12.314C245.192,41.575,255.724,31.553,259.8,27.137z"/>
	<path fill="#35495E" d="M243.068,58.9c3.227-3.822,7.389-7.134,9.767-8.748c6.879-4.926,11.295,0.764,2.972,7.983
		c-5.011,4.416-11.89,7.644-14.268,8.663c-0.595,4.671,7.304,4.331,14.268-1.614c0.595-0.594,1.614,0.934,0.679,1.868
		C245.106,78.434,231.603,72.658,243.068,58.9z M255.638,55.333c3.482-3.312,3.227-6.37-3.397-1.444
		c-2.378,1.868-5.435,4.501-7.643,7.219c-0.764,0.934-1.359,1.698-1.868,2.548C247.654,61.958,253.599,57.371,255.638,55.333z"/>
	<path fill="#35495E" d="M262.007,67.988c2.123-4.077,6.709-9.002,8.323-10.276c1.614-1.274,2.717-3.142,1.528-2.888
		c-1.019,0.255-2.548,0.34-3.567-0.255c-2.293,2.888-5.435,6.794-12.06,12.739c-1.698,1.614-2.038-0.764-1.444-1.274
		c4.331-3.567,9.597-9.342,12.399-12.909c-0.509-1.783,1.104-4.077,2.379-5.096c2.208-1.783,3.906,0.17,2.802,2.378
		c-0.764,1.529,0.085,1.529,2.463,1.189c2.463-0.255,3.906,3.567,1.698,5.096c-2.293,1.529-7.474,7.049-10.871,11.211
		c-2.378,2.972-0.85,3.567,1.104,2.633c2.038-0.849,5.181-3.057,8.068-5.35c0.594-0.594,1.614,0.934,0.68,1.868
		c-2.293,2.293-6.794,5.265-9.937,6.2C262.601,74.187,260.053,71.809,262.007,67.988z"/>
	<path fill="#35495E" d="M274.065,66.544c3.397-7.304,12.825-15.882,16.476-19.619l3.907-3.737
		c-5.605,0.255-10.361,0.424-12.57,0.34c-2.972-0.17-1.613-3.057-0.085-3.312c0.509-0.085,8.153-0.34,16.306-0.679
		c5.435-5.35,11.041-10.871,11.89-11.465c1.359-0.934,2.548,1.698,1.274,2.887c-0.34,0.425-3.567,3.567-8.493,8.408
		c7.729-0.34,14.777-0.595,15.287-0.595c2.208,0,2.123,2.888,1.189,2.888c-4.246,0.255-12.4,0.849-20.213,1.274
		c-6.54,6.2-12.994,11.805-21.742,23.61c-1.953,2.717-0.594,5.096,2.887,3.142c1.954-1.104,4.841-3.142,6.455-4.501
		c0.594-0.594,1.613,0.934,0.68,1.868c-1.02,1.019-2.123,1.953-3.143,2.718c-2.378,1.783-7.304,4.586-9.851,2.633
		C273.131,71.469,272.707,69.516,274.065,66.544z"/>
	<path fill="#35495E" d="M309.14,56.607c-0.425,0.934-1.104,2.038-1.868,3.142c2.973,0.085,6.964-1.104,8.832-3.057
		c0.68-0.764,2.973-0.679,2.378,0.425c-0.594,0.934-5.435,5.265-11.38,5.181c-0.594,0-1.104-0.085-1.614-0.17
		c-3.906,4.756-9.342,9.512-13.249,11.126c-5.181,2.038-10.191-2.548-3.822-10.786c6.455-8.238,11.635-11.635,15.203-12.569
		c2.123-0.594,3.142,0.085,3.567,0.509C309.565,50.407,311.264,52.276,309.14,56.607z M290.116,65.44
		c-5.095,7.389,1.868,6.54,9.427-1.104c1.274-1.274,2.293-2.463,3.143-3.482c-1.444-1.359-1.444-3.482-1.359-4.926
		c0.085-0.679,0.255-1.359,0.594-1.953C298.185,55.928,293.428,60.599,290.116,65.44z M306.508,55.673
		c1.359-2.038-0.425-3.482-1.954-1.189c-1.358,2.123-1.189,3.567-0.255,4.331C305.233,57.626,305.913,56.607,306.508,55.673z"/>
	<circle fill="#35495E" cx="310.242" cy="70.712" r="2.123"/>
</g>
</svg>
