<?xml version="1.0" encoding="utf-8"?>
<!-- Generator: Adobe Illustrator 17.0.0, SVG Export Plug-In . SVG Version: 6.00 Build 0)  -->
<!DOCTYPE svg PUBLIC "-//W3C//DTD SVG 1.1//EN" "http://www.w3.org/Graphics/SVG/1.1/DTD/svg11.dtd">
<svg version="1.1" id="Layer_1" xmlns="http://www.w3.org/2000/svg" xmlns:xlink="http://www.w3.org/1999/xlink" x="0px" y="0px"
	 width="284px" height="284px" viewBox="0 0 284 284" enable-background="new 0 0 284 284" xml:space="preserve">
<g>
	<circle fill="#F3F2F1" cx="143.5" cy="143.543" r="135.5"/>
	<g>
		<path fill="#F0D0B4" d="M115.987,280.706l9.659-15.916l-25.028-13.931l-7.01,22.409
			C99.016,275.575,107.233,278.71,115.987,280.706z"/>
		<path opacity="0.55" fill="#CB9B79" d="M97.255,261.608c0,0,13.434,10.539,23.739,10.847l4.652-7.665l-25.028-13.931
			L97.255,261.608z"/>
		<path fill="#F0D0B4" d="M95.649,248.666c-34.07-37.748-34.008-84.073-30.931-109.157c-1.521-5.785,4.801-28.746,9.066-35.318
			c22.95-35.348,50.658-20.974,97.962-15.743c47.297,5.227,66.594,43.299,68.249,53.535c0.232,1.402-0.453,17.924-1.191,19.874
			c-3.421,17.293-18.71,74.452-75.138,100.856C163.666,262.714,124.097,280.184,95.649,248.666z"/>
		<g>
			<path fill="#CBAB8A" d="M217.745,165.941l1.911-2.831c-0.575-0.392-58.732-39.061-133.148-39.56l-0.023,3.417
				C159.85,127.454,217.18,165.559,217.745,165.941L217.745,165.941z"/>
		</g>
		<g>
			<path fill="#F4F5F5" d="M186.851,179.843c-1.394,6.671,2.111,13.046,7.829,14.238c5.718,1.196,11.476-3.243,12.874-9.91
				c1.393-6.67-2.113-13.046-7.825-14.242C194.01,168.739,188.247,173.174,186.851,179.843z"/>
			<g>
				<path fill="#CBAB8A" d="M194.33,195.754c-6.63-1.385-10.74-8.677-9.151-16.259c1.586-7.58,8.264-12.623,14.895-11.236
					c6.629,1.385,10.736,8.681,9.15,16.261C207.646,192.1,200.961,197.14,194.33,195.754L194.33,195.754z M199.38,171.603
					c-4.788-0.997-9.659,2.854-10.858,8.589c-1.197,5.737,1.723,11.217,6.508,12.214c4.785,1.003,9.653-2.848,10.85-8.588
					C207.082,178.083,204.162,172.604,199.38,171.603L199.38,171.603z"/>
			</g>
			<path fill="#47342E" d="M192.145,181.177c-0.412,1.964,1.13,3.953,3.431,4.434c2.316,0.482,4.512-0.723,4.925-2.688
				c0.409-1.968-1.12-3.951-3.432-4.435C194.757,178.004,192.562,179.207,192.145,181.177z"/>
		</g>
		<g>
			<path fill="#F4F5F5" d="M96.026,154.853c-1.391,6.667,2.114,13.044,7.83,14.237c5.717,1.197,11.484-3.242,12.875-9.91
				c1.393-6.67-2.113-13.042-7.826-14.238C103.189,143.747,97.424,148.185,96.026,154.853z"/>
			<g>
				<path fill="#CBAB8A" d="M103.506,170.763c-6.633-1.386-10.734-8.68-9.152-16.26c1.587-7.578,8.267-12.62,14.898-11.234
					c6.629,1.387,10.732,8.68,9.149,16.262C116.816,167.111,110.135,172.15,103.506,170.763L103.506,170.763z M108.555,146.613
					c-4.788-0.998-9.659,2.852-10.858,8.59c-1.198,5.735,1.724,11.215,6.509,12.214c4.785,1.001,9.652-2.85,10.854-8.586
					C116.259,153.093,113.338,147.614,108.555,146.613L108.555,146.613z"/>
			</g>
			<path fill="#47342E" d="M101.322,156.187c-0.413,1.965,1.129,3.951,3.436,4.431c2.313,0.486,4.51-0.72,4.92-2.686
				c0.412-1.968-1.122-3.953-3.434-4.434C103.934,153.015,101.736,154.219,101.322,156.187z"/>
		</g>
		<g>
			<polygon fill="#DCB89C" points="152.418,157.259 143.131,203.332 128.459,201.766 			"/>
			<polygon fill="#CBAB8A" points="154.256,208.551 144.256,200.305 128.288,202.234 			"/>
		</g>
		<path fill="#1B1918" d="M138.315,119.798c-19.17-5.064-37.031-11.363-48.855-18.966l-1.743,2.637c0,0-9.721,24.397-11.598,48.545
			c-3.273-1.105-7.96-2.699-12.382-4.205c-0.309-10.464-0.121-25.251,2.486-36.883c0.027-0.149,0.048-0.295,0.075-0.443
			c10.91-52.185,59.923-86.094,109.476-75.74c46.161,9.646,76.493,54.31,71.611,102.566c0.039,0.815,0.094,1.63,0.086,2.454
			c-0.082,12.421-7.205,30.144-12.787,42.152l-13.17-1.236c5.863-17.725,7.617-37.026,8.093-44.408
			c-1.692-0.189-4.54-0.523-8.346-1.008c-0.11,0.002-57.215,0.015-81.026-4.96c0,0,8.288-1.982,12.873-5.053l-19.999-0.072
			L138.315,119.798z"/>
		<path fill="#E5BD9B" d="M70.389,124.947c0,0-8.419-9.803-11.705-2.445c-0.91,2.04-1.335,5.573-1.3,9.766
			c0.093,10.944,3.321,26.37,9.244,31.38"/>
		<path fill="#F0D0B4" d="M238.627,160.106c0,0,11.642-5.614,11.707,2.447c0.059,8.058-13.48,31.453-23.757,34.518"/>
		<g>
			<path fill="#CBAB8A" d="M144.805,242.588c1.469,0.306,2.325,0.423,2.385,0.433l0.43-3.393
				c-0.445-0.058-45.619-6.351-56.563-53.41l-3.325,0.773C97.725,229.99,134.976,240.535,144.805,242.588L144.805,242.588z"/>
		</g>
		<path fill="none" stroke="#CBAB8A" stroke-width="2" d="M93.994,186.364c0,0-6.548-3.856-9.317,1.022"/>
		<path fill="none" stroke="#CBAB8A" stroke-width="2" d="M134.559,250.858c0,0-11.507-3.277-17.826-8.089"/>
		<path fill="none" stroke="#CBAB8A" stroke-width="2" d="M63.253,160.604l-4.071-7.44c-6.961-36.273,5.082-32.942,5.082-32.942"/>
	</g>
</g>
</svg>
