<?xml version="1.0" encoding="utf-8"?>
<!-- Generator: Adobe Illustrator 17.0.0, SVG Export Plug-In . SVG Version: 6.00 Build 0)  -->
<!DOCTYPE svg PUBLIC "-//W3C//DTD SVG 1.1//EN" "http://www.w3.org/Graphics/SVG/1.1/DTD/svg11.dtd">
<svg version="1.1" id="Layer_1" xmlns="http://www.w3.org/2000/svg" xmlns:xlink="http://www.w3.org/1999/xlink" x="0px" y="0px"
	 width="370px" height="162px" viewBox="0 0 370 162" enable-background="new 0 0 370 162" xml:space="preserve">
<g>
	<path fill="#35495E" d="M89.123,32.921c0,21.657-58.12,95.026-55.027,92.595c2.873-2.21,111.379-99.225,118.009-102.76
		c6.63-3.757,13.481,5.745,11.271,7.292c-20.331,14.807-79.336,97.678-83.976,105.855c-4.42,8.397-5.083,16.574-0.221,11.491
		c66.076-72.485,106.738-108.948,147.18-133.92c2.873-1.768,10.607-1.326,5.745,1.326c-27.844,13.922-92.374,79.998-107.622,95.247
		c-15.248,15.248-47.071,55.91-55.027,48.839c-8.176-6.851,3.536-30.276,23.646-56.574c19.889-26.298,51.049-64.751,48.839-62.982
		C121.83,56.125,11.776,156.234,9.345,157.56c-2.21,1.326-7.293-2.651-5.967-5.304c1.547-2.652,9.061-11.491,36.243-48.618
		C67.023,66.512,92.659,22.756,75.2,22.756c-16.133,0-50.828,40.662-52.817,46.408c-1.989,5.525-7.956,6.188-5.304,0
		c6.188-14.365,16.353-25.414,25.414-34.917C61.057,15.463,89.123,9.054,89.123,32.921z"/>
	<path fill="#35495E" d="M214.2,120.213c5.304-10.608,17.458-23.425,21.658-26.74c3.978-3.315,7.072-8.177,3.978-7.514
		c-1.989,0.442-4.641,0.663-6.85,0.221c-8.398,10.608-19.668,19.447-33.812,19.227c-1.547,0-2.873-0.221-4.199-0.442
		c-10.166,12.375-24.309,24.751-34.474,28.95c-13.481,5.304-26.519-6.629-9.945-28.066c16.796-21.436,30.276-30.275,39.558-32.706
		c5.525-1.547,8.177,0.22,9.281,1.326c6.188,0,10.608,4.862,5.083,16.132c-1.105,2.431-2.873,5.304-4.862,8.177
		c1.105,0,1.989,0,3.094,0c11.491-0.663,20.331-8.397,26.077-14.806c-0.442-0.442-0.663-1.105-0.884-1.547
		c-2.21-4.862,2.431-11.271,5.966-14.143c5.746-4.641,10.165,0.442,7.293,6.188c-1.989,3.978,0,3.978,6.409,3.094
		c6.188-0.663,10.166,9.281,4.42,13.259c-6.188,3.978-19.668,18.342-28.287,29.171c-6.188,7.735-2.431,9.281,2.873,6.85
		c5.304-2.21,13.481-7.956,20.773-13.922c1.768-1.547,3.978,2.431,1.768,4.862c-5.966,5.966-17.68,13.701-25.635,16.132
		C215.747,136.345,209.118,130.157,214.2,120.213z M184.146,88.832c0.22-1.768,0.663-3.536,1.547-5.083
		c-9.724,5.083-22.099,17.237-30.718,29.834c-13.259,19.227,4.862,17.017,24.53-2.873c3.314-3.315,5.966-6.409,8.176-9.061
		C183.925,98.113,183.925,92.589,184.146,88.832z M197.627,88.169c3.535-5.304-1.105-9.061-5.083-3.095
		c-3.536,5.525-3.094,9.061-0.663,11.271C194.312,93.252,196.08,90.599,197.627,88.169z"/>
	<path fill="#35495E" d="M239.614,135.46c-3.315,3.978-4.862-3.978-3.094-6.85c1.989-2.652,6.63-13.481,34.474-42.872
		c27.845-29.171,80.882-81.546,82.651-83.535c7.293-6.409,8.84,2.873,5.746,6.188c-3.757,4.199-65.192,65.413-79.336,78.894
		c-1.105,1.104-2.21,2.21-3.094,3.535c9.944-7.072,24.751-14.143,29.834-14.585c13.481-0.884,12.375,14.585-11.05,29.834
		c-10.608,7.072-19.448,9.723-26.519,10.166c0.22,3.757,1.767,13.922,10.828,14.365c8.397,0.442,24.088-11.713,31.381-17.68
		c1.768-1.326,4.198,2.431,1.989,4.862c-3.535,3.535-11.27,9.944-15.69,12.818c-17.016,11.049-27.624,4.198-31.602-0.664
		c-2.651-3.094-4.641-9.06-5.525-13.922c-1.326-0.221-2.43-0.442-3.314-0.663C250.001,123.748,244.255,129.494,239.614,135.46z
		 M297.514,97.671c14.364-9.944,15.69-22.32-9.061-6.85c-15.469,9.724-19.668,13.702-23.646,18.563
		C272.1,111.152,287.569,104.743,297.514,97.671z"/>
</g>
</svg>
